<svg viewBox="0 0 24 24" fill="#fff" xmlns="http://www.w3.org/2000/svg">
  <path fill-rule="evenodd" d="M2 12.019C2.003 17.495 6.388 22.046 12.084 22a9.971 9.971 0 0 0 9.874-8.996c.54-5.48-3.42-10.675-9.555-10.993C6.628 1.811 1.997 6.405 2 12.02Zm10.476-8.922c5.033.262 8.931 4.657 8.391 9.907-.463 4.506-4.394 7.937-8.87 7.917A8.888 8.888 0 0 1 3.1 12.019c0-5.1 4.176-9.193 9.377-8.922Zm-8.915 8.608c-.192 4.478 3.234 8.41 7.87 8.73 4.638.322 8.609-3.203 8.986-7.65.469-4.468-2.903-8.616-7.362-9.162-5.15-.63-9.29 3.308-9.494 8.082ZM14.38 5.678s1.429.035 2.112.971c1.024 1.739-.339 4.033-2.08 4.637 0 0-.201.066-.201.093 0 .027.112.055.112.055.953.196 1.752.835 1.826 1.85.19 2.591-2.288 4.491-4.358 4.735-.48.133-4.003.077-4.003.077s-.532-.051-.418-.647l1.219-4.281 2.418-.101c-.654 1.192.465 3.843 2.257 3.592 1.393-.446.597-2.537.597-2.537-.408-.923-1.206-1.577-1.923-1.577l-3.214.136 1.451-5.062 1.966-.082c-.508.877.226 2.667 1.46 2.763 1.09-.056.84-1.448.84-1.448-.239-.927-.84-1.778-1.925-1.68l-2.235.068.245-.853c.193-.668.854-.707.854-.707s2.81-.018 3-.002Z" clip-rule="evenodd"></path>
</svg>